:SAMPLES-PER-SECOND 30
:FULLY-SPECIFIED
:DEGREES
384
root  -3.21442 40.9393 0.780659 -7.56793 -88.1388 13.2827
RightUpLeg  -0.402379 -1.60356 -2.69652
RightLeg  -3.9849 -20.956 1.65464
RightFoot  0.487732 -0.386684 3.73213
RightToes  -3.11842e-008 1.75238e-005 3.56266e-009
Spine  -4.95593 -1.25736 -6.917
Spine1  -6.60585 -1.15496 4.12484
HEad  -9.06532 1.02505 -2.81056
LeftShoulder1  2.74738 -5.51832 -24.2473
LeftArm  -1.44363 -22.6233 -45.2986
LeftForeArm  141.23 -55.6529 -163.094
LeftHand  -0.379719 -1.59817 6.4585
RightShoulder  2.4388 5.6369 20.3307
RightArm  24.5979 5.0635 20.1363
RightForeArm  116.31 50.0365 164.548
RightHand  -0.650473 4.91838 -7.61365
LeftUpLeg  -1.78398 -0.452749 1.10735
LeftLeg  -4.60017 14.3963 -1.59405
LeftFoot  1.37388 0.134556 -1.36602
LeftToes  4.7713e-008 1.46693e-008 1.32589e-009
385
root  -3.18459 40.942 0.802642 -11.4611 -88.3607 17.2243
RightUpLeg  -0.611088 -1.58666 -2.77999
RightLeg  -3.81899 -20.752 1.51346
RightFoot  0.500989 -0.394466 3.84058
RightToes  -3.11842e-008 1.75238e-005 3.56266e-009
Spine  -4.97871 -1.20155 -7.10387
Spine1  -6.67223 -1.10636 4.34525
HEad  -8.23692 1.39066 -2.82817
LeftShoulder1  2.89868 -5.90778 -24.6184
LeftArm  2.80601 -19.8787 -44.3545
LeftForeArm  144.67 -53.7619 -164.392
LeftHand  -0.437285 -3.08767 6.21086
RightShoulder  2.38324 5.52137 20.0308
RightArm  18.4075 6.83211 21.5969
RightForeArm  114.758 50.3774 164.309
RightHand  -0.650031 4.45687 -7.92799
LeftUpLeg  -1.82572 -0.566502 0.986127
LeftLeg  -4.65435 14.7484 -1.59149
LeftFoot  1.45601 0.126824 -1.25831
LeftToes  4.7713e-008 1.46693e-008 1.32589e-009
386
root  -3.16718 40.9448 0.833966 -16.1524 -88.8007 21.7501
RightUpLeg  -0.541631 -1.60539 -2.82225
RightLeg  -3.76983 -20.276 1.45527
RightFoot  0.547567 -0.395311 3.83467
RightToes  -3.11842e-008 1.75238e-005 3.56266e-009
Spine  -5.20212 -1.00581 -6.57115
Spine1  -6.10265 -0.885367 3.69616
HEad  -7.00347 1.05643 -2.43388
LeftShoulder1  3.0232 -6.19927 -24.9807
LeftArm  7.55617 -16.1434 -43.4309
LeftForeArm  147.326 -52.1366 -165.403
LeftHand  -0.255434 -5.0655 3.28406
RightShoulder  2.26786 5.08635 20.0214
RightArm  11.962 8.49419 23.6053
RightForeArm  113.913 50.8485 164.033
RightHand  -0.604093 4.48551 -7.37843
LeftUpLeg  -1.58546 -0.552999 0.930423
LeftLeg  -4.72726 15.2083 -1.62617
LeftFoot  1.41747 0.126116 -1.25871
LeftToes  4.7713e-008 1.46693e-008 1.32589e-009
387
root  -3.14793 40.9457 0.881771 -44.6463 -89.4007 49.9342
RightUpLeg  -0.325178 -1.59306 -2.84617
RightLeg  -3.78322 -19.5517 1.38812
RightFoot  0.639565 -0.400327 3.86817
RightToes  -3.11842e-008 1.75238e-005 3.56266e-009
Spine  -5.66442 -0.989197 -6.04494
Spine1  -4.83519 -0.922209 3.52973
HEad  -6.99807 1.42147 -2.52192
LeftShoulder1  3.35474 -6.67844 -26.8765
LeftArm  10.5638 -10.9459 -40.1962
LeftForeArm  151.242 -50.6239 -166.363
LeftHand  0.0774274 -8.39437 -0.326645
RightShoulder  2.42512 5.59949 20.3162
RightArm  6.05549 10.6095 25.61
RightForeArm  113.454 51.3947 163.729
RightHand  -0.659304 5.15197 -7.54861
LeftUpLeg  -1.22639 -0.419792 0.927365
LeftLeg  -4.66771 15.8536 -1.71246
LeftFoot  1.22646 0.134654 -1.40165
LeftToes  4.7713e-008 1.46693e-008 1.32589e-009
388
root  -3.11116 40.9457 0.935146 -127.074 -89.4384 131.877
RightUpLeg  -0.116726 -1.68137 -2.99964
RightLeg  -3.45383 -18.6403 1.16292
RightFoot  0.591252 -0.408259 3.93496
RightToes  -3.11842e-008 1.75238e-005 3.56266e-009
Spine  -5.21285 -1.17491 -6.11243
Spine1  -4.28475 -1.28274 4.63689
HEad  -7.81998 2.63083 -3.53491
LeftShoulder1  3.56831 -6.55169 -29.4901
LeftArm  12.8877 -3.49235 -37.0893
LeftForeArm  157.689 -49.1974 -167.427
LeftHand  0.287395 -8.98774 -1.93105
RightShoulder  2.50154 6.21477 19.3172
RightArm  1.89613 12.3257 29.2874
RightForeArm  113.87 52.1397 163.355
RightHand  -0.690997 5.19157 -7.87367
LeftUpLeg  -0.727367 -0.367507 0.789216
LeftLeg  -4.53867 16.5938 -1.77531
LeftFoot  1.05987 0.127145 -1.29383
LeftToes  4.7713e-008 1.46693e-008 1.32589e-009
389
root  -3.08949 40.9449 0.974466 -160.498 -88.6853 164.66
RightUpLeg  0.34855 -1.67646 -3.01332
RightLeg  -3.29784 -17.7773 0.988987
RightFoot  0.636943 -0.412805 3.95113
RightToes  -3.11842e-008 1.75238e-005 3.56266e-009
Spine  -7.70043 -0.518812 -3.44232
Spine1  0.553316 -0.206362 0.210813
HEad  -9.09573 1.32132 -1.25953
LeftShoulder1  3.59564 -7.26343 -27.3081
LeftArm  13.7194 0.783212 -38.2459
LeftForeArm  159.054 -51.0326 -166.745
LeftHand  0.259449 -8.31178 -1.81231
RightShoulder  2.64502 5.84292 22.0533
RightArm  -2.70435 13.1217 30.6005
RightForeArm  114.592 51.9252 163.504
RightHand  -0.644565 5.57897 -7.11705
LeftUpLeg  -0.00392105 -0.286826 0.723102
LeftLeg  -4.46017 17.362 -1.72962
LeftFoot  0.901338 0.128157 -1.31705
LeftToes  4.7713e-008 1.46693e-008 1.32589e-009
390
root  -3.06938 40.9429 1.02044 -169.501 -87.5314 172.929
RightUpLeg  0.770863 -1.66877 -3.04652
RightLeg  -2.90519 -16.5634 0.702505
RightFoot  0.522851 -0.428331 4.15363
RightToes  -3.11842e-008 1.75238e-005 3.56266e-009
Spine  -7.75372 -0.107452 -2.99463
Spine1  2.26573 0.194951 0.0353215
HEad  -10.3787 1.85787 -0.997641
LeftShoulder1  3.78079 -7.43948 -28.4955
LeftArm  12.4269 7.10657 -37.5711
LeftForeArm  160.66 -52.3369 -166.272
LeftHand  0.195125 -8.04299 -1.31031
RightShoulder  2.66533 5.7967 22.442
RightArm  -4.10064 12.7702 33.0936
RightForeArm  115.787 51.8618 163.596
RightHand  -0.696113 5.99532 -7.4129
LeftUpLeg  0.855827 -0.061182 0.70623
LeftLeg  -4.36606 18.2933 -1.83385
LeftFoot  0.666024 0.133292 -1.4028
LeftToes  4.7713e-008 1.46693e-008 1.32589e-009
